HIERARCHY
ROOT SpineBase
{
  OFFSET 0.000000 0.000000 0.000000
  CHANNELS 6 Xposition Yposition Zposition Zrotation Xrotation Yrotation
  JOINT SpineMid
  {
    OFFSET -0.000000 30.661923 0.000000
    CHANNELS 3 Zrotation Xrotation Yrotation
    JOINT SpineShoulder
    {
      OFFSET -0.814482 22.746242 -0.637211
      CHANNELS 3 Zrotation Xrotation Yrotation
      JOINT Neck
      {
        OFFSET -0.324430 7.551054 -0.576542
        CHANNELS 3 Zrotation Xrotation Yrotation
        JOINT Head
        {
          OFFSET -0.866783 12.134868 1.638771
          CHANNELS 3 Zrotation Xrotation Yrotation
          End Site
          {
            OFFSET 0 0 0
          }
        }
      }
      JOINT ShoulderLeft
      {
        OFFSET -15.506211 -2.322626 1.362608
        CHANNELS 3 Zrotation Xrotation Yrotation
        JOINT ElbowLeft
        {
          OFFSET -1.959001 -30.175580 2.143838
          CHANNELS 3 Zrotation Xrotation Yrotation
          JOINT WristLeft
          {
            OFFSET -4.273004 -22.588679 -2.370027
            CHANNELS 3 Zrotation Xrotation Yrotation
            JOINT HandLeft
            {
              OFFSET 2.473320 -2.399201 0.246252
              CHANNELS 3 Zrotation Xrotation Yrotation
              JOINT HandTipLeft
              {
                OFFSET -0.438741 -6.824297 -2.656953
                CHANNELS 3 Zrotation Xrotation Yrotation
                End Site
                {
                  OFFSET 0 0 0
                }
              }
              JOINT ThumbLeft
              {
                OFFSET 3.330450 -0.139388 -2.938312
                CHANNELS 3 Zrotation Xrotation Yrotation
                End Site
                {
                  OFFSET 0 0 0
                }
              }
            }
          }
        }
      }
      JOINT ShoulderRight
      {
        OFFSET 13.990546 -1.799356 -4.954942
        CHANNELS 3 Zrotation Xrotation Yrotation
        JOINT ElbowRight
        {
          OFFSET 4.523231 -25.627586 -0.308662
          CHANNELS 3 Zrotation Xrotation Yrotation
          JOINT WristRight
          {
            OFFSET 1.468270 -22.302263 -7.801230
            CHANNELS 3 Zrotation Xrotation Yrotation
            JOINT HandRight
            {
              OFFSET -2.296050 -2.310643 -0.737904
              CHANNELS 3 Zrotation Xrotation Yrotation
              JOINT HandTipRight
              {
                OFFSET 0.150527 -5.852018 -0.549486
                CHANNELS 3 Zrotation Xrotation Yrotation
                End Site
                {
                  OFFSET 0 0 0
                }
              }
              JOINT ThumbRight
              {
                OFFSET -3.213617 2.027910 -0.299039
                CHANNELS 3 Zrotation Xrotation Yrotation
                End Site
                {
                  OFFSET 0 0 0
                }
              }
            }
          }
        }
      }
    }
  }
  JOINT HipLeft
  {
    OFFSET -6.564009 0.977897 -2.019329
    CHANNELS 3 Zrotation Xrotation Yrotation
    JOINT KneeLeft
    {
      OFFSET -1.590222 -25.566141 -3.574957
      CHANNELS 3 Zrotation Xrotation Yrotation
      JOINT AnkleLeft
      {
        OFFSET 9.382206 -23.526894 -2.121720
        CHANNELS 3 Zrotation Xrotation Yrotation
        JOINT FootLeft
        {
          OFFSET 0.321515 -4.875027 -9.918859
          CHANNELS 3 Zrotation Xrotation Yrotation
          End Site
          {
            OFFSET 0 0 0
          }
        }
      }
    }
  }
  JOINT HipRight
  {
    OFFSET 6.073900 1.572937 -4.687121
    CHANNELS 3 Zrotation Xrotation Yrotation
    JOINT KneeRight
    {
      OFFSET 5.208623 -22.883853 -2.442818
      CHANNELS 3 Zrotation Xrotation Yrotation
      JOINT AnkleRight
      {
        OFFSET 4.175816 -27.426986 0.894871
        CHANNELS 3 Zrotation Xrotation Yrotation
        JOINT FootRight
        {
          OFFSET 2.470070 0.099730 -4.508334
          CHANNELS 3 Zrotation Xrotation Yrotation
          End Site
          {
            OFFSET 0 0 0
          }
        }
      }
    }
  }
}
MOTION
Frames: 9
Frame Time: 0.033333
21.540783 54.618453 322.595483 -1.168161 -1.060502 18.952781 -1.800908 0.424482 -19.070706 -0.278977 0.157681 -0.161391 3.817081 2.139061 0.252356 0.000000 0.000000 0.000000 -2.964979 -18.108864 0.135493 -2.704321 49.455750 -1.354308 -55.844525 -0.322353 47.685085 72.430926 -36.992118 -11.388997 0.000000 0.000000 0.000000 0.000000 0.000000 0.000000 0.671812 4.655545 1.061188 -1.103769 -7.115067 0.110616 32.285200 -18.206213 21.303161 -26.121513 33.038767 -10.230899 0.000000 0.000000 0.000000 0.000000 0.000000 0.000000 -3.370031 -4.049530 -18.314101 1.830212 3.844900 -1.588373 13.144937 23.550875 -17.821139 0.000000 0.000000 0.000000 9.041196 1.402879 -19.113594 -13.524135 9.105097 1.840771 4.680497 -33.049453 45.048736 0.000000 0.000000 0.000000
21.614486 54.682306 322.578071 -1.224828 -1.104491 19.095226 -1.863974 0.392350 -19.220469 -0.281647 0.164680 -0.166461 3.931660 2.561892 0.280385 0.000000 0.000000 0.000000 -7.003608 -22.183688 -0.855877 -15.962025 69.688929 10.686769 -53.120736 -6.959635 67.221948 64.964752 -48.794530 -22.039742 0.000000 0.000000 0.000000 0.000000 0.000000 0.000000 1.676671 3.869511 0.845756 -0.819795 -6.665773 -0.057497 33.573267 -17.737819 21.747961 -28.941667 30.770895 -9.294754 0.000000 0.000000 0.000000 0.000000 0.000000 0.000000 -4.166224 -2.626815 -18.300792 5.237721 2.532011 -2.163661 11.999573 21.092937 -19.901573 0.000000 0.000000 0.000000 9.683427 0.365378 -19.465920 -14.569608 8.245753 1.890994 4.458321 -33.703927 44.316356 0.000000 0.000000 0.000000
21.730992 54.717095 322.527419 -1.211482 -1.112326 19.554079 -1.944583 0.377596 -19.682867 -0.280504 0.172481 -0.168727 4.072193 3.081598 0.299739 0.000000 0.000000 0.000000 -11.936686 -26.377471 -2.406033 -115.375735 76.575766 108.712260 -26.551545 -7.242563 104.337401 12.144630 -45.452880 -79.100434 0.000000 0.000000 0.000000 0.000000 0.000000 0.000000 2.652776 3.053939 0.637280 -0.592630 -6.108554 -0.224855 30.771801 -17.032892 21.656264 -25.582475 28.501158 -10.926323 0.000000 0.000000 0.000000 0.000000 0.000000 0.000000 -5.714364 -1.038663 -18.473430 9.436972 1.538600 -2.661236 9.969602 19.042892 -20.618667 0.000000 0.000000 0.000000 9.908882 -0.747336 -20.109294 -15.555420 7.533677 1.986615 2.613232 -37.193950 38.483926 0.000000 0.000000 0.000000
21.886618 54.738893 322.437382 -1.148160 -1.101596 20.135600 -2.006523 0.377533 -20.264226 -0.264314 0.196032 -0.165751 3.748424 3.359543 0.368238 0.000000 0.000000 0.000000 -19.292367 -28.100904 -4.792815 -143.141587 55.113013 137.036967 10.939248 16.343274 143.935142 -5.139026 -0.083712 -114.827431 0.000000 0.000000 0.000000 0.000000 0.000000 0.000000 4.055278 1.978936 0.378319 -1.148819 -5.365936 -0.284193 25.545939 -16.678718 22.158239 -17.357016 26.730274 -15.035657 0.000000 0.000000 0.000000 0.000000 0.000000 0.000000 -7.697540 0.578225 -18.657049 13.765169 0.742087 -3.069708 12.200016 14.729654 -28.733575 0.000000 0.000000 0.000000 9.679707 -1.653695 -20.823755 -15.304984 7.012057 2.051647 -0.976097 -42.138293 32.695726 0.000000 0.000000 0.000000
22.071372 54.747564 322.318077 -1.038082 -1.072638 20.606667 -2.056019 0.391367 -20.731465 -0.267705 0.207448 -0.162215 3.131523 3.498079 0.473512 0.000000 0.000000 0.000000 -27.671713 -26.947830 -7.169780 -143.431253 34.819550 138.143674 35.870555 42.787071 165.503251 28.729095 29.705178 -154.623303 0.000000 0.000000 0.000000 0.000000 0.000000 0.000000 5.680084 1.086568 0.170027 -2.426086 -4.804601 -0.236588 23.642468 -16.551558 22.626044 -13.327979 28.508861 -17.146654 0.000000 0.000000 0.000000 0.000000 0.000000 0.000000 -9.279421 2.216405 -18.749997 16.908179 -0.313447 -3.245013 14.244901 12.005977 -35.161555 0.000000 0.000000 0.000000 9.169528 -2.228425 -21.375944 -13.978105 6.569542 2.035003 -3.584384 -42.314188 29.410152 0.000000 0.000000 0.000000
22.279058 54.770747 322.181650 -0.887685 -1.008891 20.790486 -2.086283 0.403936 -20.908071 -0.277635 0.215127 -0.156479 2.184474 3.298551 0.601637 0.000000 0.000000 0.000000 -37.047700 -22.787628 -8.861370 -140.011735 20.039517 137.010685 54.194819 64.039850 174.460288 58.298284 25.528025 174.360344 0.000000 0.000000 0.000000 0.000000 0.000000 0.000000 7.150216 0.354402 0.020534 -3.615202 -4.590814 -0.224873 27.113687 -15.126758 20.725936 -17.285115 28.737179 -14.564604 0.000000 0.000000 0.000000 0.000000 0.000000 0.000000 -10.647084 3.317855 -18.614287 19.289220 -1.342556 -3.478914 15.666874 8.365661 -40.794072 0.000000 0.000000 0.000000 8.429018 -2.475207 -21.591308 -11.795646 6.032767 1.910376 -4.585905 -39.979946 30.131718 0.000000 0.000000 0.000000
22.509079 54.812837 322.017838 -0.713976 -0.924937 20.529705 -2.114135 0.397804 -20.639110 -0.296453 0.215661 -0.150378 0.890926 2.876829 0.761268 0.000000 0.000000 0.000000 -47.240736 -16.024720 -9.154599 -136.138301 10.952350 139.148212 91.288458 82.635005 153.968432 47.909036 12.270318 -149.680678 0.000000 0.000000 0.000000 0.000000 0.000000 0.000000 8.381124 -0.329778 -0.094964 -4.737444 -4.577807 -0.179032 27.759806 -13.591117 18.682432 -18.666225 26.744975 -12.912529 0.000000 0.000000 0.000000 0.000000 0.000000 0.000000 -10.618971 3.761851 -18.356595 19.032093 -2.635571 -3.551435 16.836024 5.762009 -44.300739 0.000000 0.000000 0.000000 7.477524 -2.278261 -21.292170 -8.805673 5.320092 1.663921 -4.833960 -34.891833 32.507211 0.000000 0.000000 0.000000
22.729825 54.839682 321.852149 -0.502791 -0.822550 19.791206 -2.135451 0.376309 -19.890765 -0.321892 0.212516 -0.142752 -0.938470 2.228742 0.967795 0.000000 0.000000 0.000000 -54.462076 -6.075551 -6.301315 -133.182262 7.330728 138.328747 82.609124 81.439225 171.657697 50.514733 -30.880504 -7.200825 0.000000 0.000000 0.000000 0.000000 0.000000 0.000000 9.334862 -1.158586 -0.204741 -5.906716 -4.524165 -0.010361 28.825435 -11.965623 16.239798 -20.498264 27.031681 -10.900456 0.000000 0.000000 0.000000 0.000000 0.000000 0.000000 -9.258014 3.370245 -17.959110 16.114009 -3.795914 -3.512032 20.043320 6.699973 -47.954171 0.000000 0.000000 0.000000 6.401641 -1.612989 -20.428405 -5.363132 4.411529 1.337147 -4.866118 -27.829153 35.792177 0.000000 0.000000 0.000000
22.976923 54.872392 321.670024 -0.337340 -0.741768 18.602584 -2.128067 0.340367 -18.694109 -0.336615 0.223579 -0.134340 -2.677383 1.800494 1.166225 0.000000 0.000000 0.000000 -59.542585 3.688542 -2.039697 -135.164724 6.806087 154.977854 90.072488 73.307997 169.108027 56.718421 -24.840384 54.871784 0.000000 0.000000 0.000000 0.000000 0.000000 0.000000 9.787707 -2.208357 -0.318894 -6.596621 -3.824059 0.240612 29.590968 -12.709942 17.758976 -17.366700 28.544509 -13.659959 0.000000 0.000000 0.000000 0.000000 0.000000 0.000000 -8.171407 3.288788 -17.025304 14.127663 -5.413805 -3.598639 21.914502 6.356363 -51.095902 0.000000 0.000000 0.000000 5.468416 -0.766404 -19.075907 -1.781237 3.234563 1.021313 -5.777120 -21.930980 38.961744 0.000000 0.000000 0.000000
